<?xml version="1.0" encoding="utf-8"?>
<!-- Generator: Adobe Illustrator 25.1.0, SVG Export Plug-In . SVG Version: 6.00 Build 0)  -->
<svg version="1.1" id="katman_1" xmlns="http://www.w3.org/2000/svg" xmlns:xlink="http://www.w3.org/1999/xlink" x="0px" y="0px"
	 viewBox="0 0 26 34.9" style="enable-background:new 0 0 26 34.9;" xml:space="preserve">
<style type="text/css">
	.st0{fill:#0891b2;}
</style>
<g id="Group_692" transform="translate(-690.525 -179)">
	<path id="Path_2596" class="st0" d="M710,192.2c0,3.6-2.9,6.5-6.5,6.5c-3.6,0-6.5-2.9-6.5-6.5c0-3.6,2.9-6.5,6.5-6.5c0,0,0,0,0,0
		C707.1,185.8,710,188.7,710,192.2L710,192.2z"/>
	<path id="Path_2597" class="st0" d="M703.5,213.9c0,0,13-14.7,13-21.9c0-7.2-5.8-13-13-13s-13,5.8-13,13l0,0
		C690.5,199.2,703.5,213.9,703.5,213.9z M703.5,183c5,0,9,4,9,9c0,5-4,9-9,9c-5,0-9-4-9-9C694.5,187,698.6,183,703.5,183
		C703.5,183,703.5,183,703.5,183L703.5,183z"/>
</g>
</svg>
